<svg version="1.2" xmlns="http://www.w3.org/2000/svg" viewBox="0 0 24 24" width="24" height="24"><style>.a{fill:#fff}</style><path fill-rule="evenodd" class="a" d="m24 12c0 6.6-5.4 12-12 12-6.6 0-12-5.4-12-12 0-6.6 5.4-12 12-12 6.6 0 12 5.4 12 12zm-5-0.1c0-1.8-0.8-3.6-2.1-4.9-1.3-1.3-3-2-4.9-2-3.8 0-6.9 3.1-6.9 6.9 0 1.3 0.3 2.5 0.9 3.5l-1 3.6 3.7-1c1 0.6 2.2 0.9 3.3 0.9 3.9 0 7-3.1 7-7zm-1.2 0c0 3.2-2.6 5.8-5.8 5.8-1.2 0-2.1-0.3-3.1-0.9l-2.2 0.6 0.6-2.2c-0.7-1-1-2-1-3.3 0-3.1 2.6-5.7 5.7-5.7 3.2 0 5.8 2.6 5.8 5.7zm-2.3 1.7c0-0.1-0.1-0.1-0.3-0.2-0.2-0.1-1-0.5-1.2-0.6-0.2 0-0.3-0.1-0.4 0.1-0.1 0.2-0.4 0.6-0.5 0.7-0.1 0.1-0.2 0.1-0.4 0-0.2 0-0.7-0.2-1.4-0.8-0.5-0.5-0.9-1.1-1-1.2-0.1-0.2 0-0.3 0.1-0.4l0.3-0.3c0.1-0.1 0.1-0.2 0.1-0.3q0.1-0.2 0-0.3c0-0.1-0.4-0.9-0.5-1.3-0.1-0.3-0.3-0.3-0.4-0.3h-0.3c-0.1 0-0.3 0.1-0.5 0.3-0.1 0.1-0.6 0.5-0.6 1.4 0 0.8 0.6 1.7 0.7 1.8 0.1 0.1 1.2 1.9 3 2.6q0.6 0.3 1 0.4c0.4 0.1 0.8 0.1 1.1 0 0.3 0 1-0.4 1.1-0.8 0.2-0.4 0.2-0.7 0.1-0.8z"/></svg>