<svg version="1.2" xmlns="http://www.w3.org/2000/svg" viewBox="0 0 24 24" width="24" height="24"><style>.a{fill:#fdb40b}</style><path fill-rule="evenodd" class="a" d="m15.2 17c-0.9 3.7-2.5 6-3.2 7-0.7-1-2.3-3.3-3.2-7zm7.6 0c-1.5 3.4-4.6 5.9-8.4 6.7 1.3-2 2.3-4.3 2.8-6.7zm-21.8 0h5.6c0.5 2.4 1.5 4.7 2.8 6.7-3.8-0.8-6.9-3.3-8.4-6.7zm14.5-2h-7.2c-0.3-2-0.3-4 0-6h7.2c0.3 2 0.3 4 0 6zm-9.3 0h-5.9q-0.4-1.4-0.4-3 0-1.6 0.4-3h5.9c-0.2 2-0.2 4 0 6zm17.3 0h-5.9c0.2-2 0.2-4 0-6h5.9q0.4 1.4 0.4 3 0 1.6-0.4 3zm-8.4-8h-6.4c0.9-3.7 2.5-6 3.2-7 1.2 1.7 2.4 3.8 3.2 7zm-8.5 0h-5.6c1.5-3.4 4.6-5.9 8.4-6.7-1.3 1.9-2.2 4.2-2.8 6.7zm16.2 0h-5.6c-0.6-2.5-1.5-4.8-2.8-6.7 3.8 0.8 6.9 3.3 8.4 6.7z"/></svg>