<svg version="1.2" xmlns="http://www.w3.org/2000/svg" viewBox="0 0 24 24" width="24" height="24"><style>.a{fill:#fdb40b}</style><path fill-rule="evenodd" class="a" d="m14.7 14.1c-0.4 0.9 0.1 1.5 0.6 2.6l-1.6 1.6c-1.1-0.5-1.7-1-2.6-0.6-0.9 0.4-1 1.1-1.5 2.3h-2.2c-0.5-1.2-0.6-1.9-1.5-2.3-0.9-0.4-1.5 0.1-2.6 0.6l-1.6-1.6c0.5-1.1 1-1.7 0.6-2.6-0.4-0.9-1.1-1-2.3-1.5v-2.2c1.2-0.5 1.9-0.6 2.3-1.5 0.4-0.9-0.1-1.5-0.6-2.6l1.6-1.6c1.1 0.5 1.7 1 2.6 0.6 0.9-0.4 1-1.1 1.5-2.3h2.2c0.5 1.2 0.6 1.9 1.5 2.3 0.9 0.4 1.5-0.1 2.6-0.6l1.6 1.6c-0.5 1.1-1 1.7-0.6 2.6 0.4 0.9 1.1 1 2.3 1.5v2.2c-1.2 0.5-1.9 0.6-2.3 1.5zm-3.4-2.6c0-1.6-1.2-2.8-2.8-2.8-1.6 0-2.8 1.2-2.8 2.8 0 1.6 1.2 2.8 2.8 2.8 1.6 0 2.8-1.2 2.8-2.8zm11.6 7.7c-0.1 0.4 0.1 0.7 0.3 1.2l-0.8 0.8c-0.5-0.2-0.8-0.4-1.2-0.3-0.4 0.2-0.5 0.6-0.7 1.1h-1c-0.2-0.5-0.3-0.9-0.7-1.1-0.4-0.1-0.7 0.1-1.2 0.3l-0.8-0.8c0.2-0.5 0.5-0.8 0.3-1.2-0.2-0.4-0.6-0.5-1.1-0.7v-1c0.5-0.2 0.9-0.3 1.1-0.7 0.1-0.4-0.1-0.7-0.3-1.2l0.8-0.8c0.5 0.2 0.8 0.5 1.2 0.3 0.4-0.2 0.5-0.6 0.7-1.1h1c0.2 0.5 0.3 0.9 0.7 1.1 0.4 0.1 0.7-0.1 1.2-0.3l0.8 0.8c-0.2 0.5-0.4 0.8-0.3 1.2 0.2 0.4 0.6 0.5 1.1 0.7v1c-0.5 0.2-0.9 0.3-1.1 0.7zm-1.6-1.2c0-0.7-0.6-1.3-1.3-1.3-0.7 0-1.3 0.6-1.3 1.3 0 0.7 0.6 1.3 1.3 1.3 0.7 0 1.3-0.6 1.3-1.3z"/></svg>