<svg version="1.2" xmlns="http://www.w3.org/2000/svg" viewBox="0 0 24 24" width="24" height="24"><style>.a{fill:#fdb40b}</style><path fill-rule="evenodd" class="a" d="m18 18c0 3.3-2.7 6-6 6-3.3 0-6-2.7-6-6 0-3.3 2.7-6 6-6 3.3 0 6 2.7 6 6zm-10 0c0 2.2 1.8 4 4 4 2.2 0 4-1.8 4-4 0-2.2-1.8-4-4-4-2.2 0-4 1.8-4 4zm5.5 2.2l-1.5-0.8-1.5 0.8 0.3-1.7-1.3-1.3 1.7-0.2 0.8-1.6 0.8 1.6 1.7 0.2-1.3 1.3zm-4.2-9.8q-0.5 0.2-1.1 0.5l-5.2-7.9 0.7-1zm-0.4-7.5l-3.3-3h12.5l-3 3zm4.9 7.3q-0.6-0.2-1.3-0.2l6.6-9.7 0.7 1zm-9.2-9.9l6.6 9.7q-0.6 0-1.2 0.2l-6-8.9zm15.6 1.6l0.7 1-5.3 7.9q-0.5-0.3-1.1-0.5z"/></svg>