<svg version="1.2" xmlns="http://www.w3.org/2000/svg" viewBox="0 0 24 24" width="24" height="24"><style>.a{fill:#fdb40b}</style><path fill-rule="evenodd" class="a" d="m1 6.4c0-1 0.8-1.8 1.8-1.8 1.2 0 2.1 1.2 1.8 2.3-0.6 1.9 5.8 3.7 6.8-1.5 0.2-1.3-0.1-1.6-0.7-2.3-0.3-0.3-0.5-0.8-0.5-1.3 0-1 0.8-1.8 1.8-1.8 1 0 1.8 0.8 1.8 1.8 0 0.5-0.2 1-0.5 1.3-0.6 0.7-0.9 1-0.7 2.3 1 5.2 7.4 3.4 6.8 1.5-0.3-1.1 0.6-2.3 1.8-2.3 1 0 1.8 0.8 1.8 1.8 0 1.1-1 2-2.1 1.8-1.3-0.2-3 4.6-3.4 6.7-1.8-0.6-3.6-0.9-5.5-0.9-1.9 0-3.7 0.3-5.5 0.9-0.4-2.1-2.1-6.9-3.4-6.7-1.1 0.2-2.1-0.7-2.1-1.8zm1.9 11.6l2.3 3.3q-1.3 1.2-2.3 2.7l-0.5-3h-2.4c0.8-1.2 1.8-2.1 2.9-3zm21.1 3h-2.4l-0.5 3q-1-1.5-2.3-2.7l2.3-3.3c1.1 0.9 2.1 1.8 2.9 3zm-4.2-2.8l-2.4 3.3c-1.6-0.9-3.4-1.4-5.4-1.4-2 0-3.8 0.5-5.4 1.4l-2.4-3.3c2.3-1.4 5-2.2 7.8-2.2 2.8 0 5.5 0.8 7.8 2.2zm-11 0.6l0.6-0.5-0.8-0.1-0.3-0.7-0.3 0.7-0.7 0.1 0.5 0.5-0.1 0.7 0.6-0.3 0.7 0.3zm3.7-0.5l0.5-0.5-0.7-0.1-0.4-0.7-0.3 0.7-0.7 0.1 0.5 0.5-0.1 0.7 0.6-0.3 0.7 0.3zm3.7 0.5l0.5-0.5-0.7-0.1-0.3-0.7-0.3 0.7-0.8 0.1 0.6 0.5-0.2 0.7 0.7-0.3 0.6 0.3z"/></svg>