<svg version="1.2" xmlns="http://www.w3.org/2000/svg" viewBox="0 0 24 24" width="24" height="24"><style>.a{fill:#fdb40b}</style><path class="a" d="m20.4 21.3c0 1-1.7 2.7-4.9 2.7-5 0-6.8-3-13.5-3v-9.9c3.5-0.6 7-1.7 8.7-7.6 0.5-1.7 0.8-3.5 2.4-3.5 2.3 0 2.6 5.1 1.6 8.8 1.4 0.7 3.8 0.9 5 0.9 1.8-0.1 2.3 0.8 2.3 1.5 0 1-0.8 1.3-1.4 1.5-0.6 0.2-0.8 0.8 0 0.9 0.8 0.1 1.3 0.6 1.3 1.2 0 0.7-0.6 1.3-1.7 1.4-0.7 0.1-0.9 0.6 0 0.8 0.7 0.2 1.1 0.7 1.1 1.2 0 0.6-0.6 1.3-1.9 1.6-0.7 0.1-0.8 0.8 0 0.9 0.7 0.1 1 0.3 1 0.6z"/></svg>